<svg xmlns="http://www.w3.org/2000/svg" viewBox="0 0 24 24" fill="#fff" role="img" aria-label="Amazon"><path d="M13.958 17.21c-5.653 3.317-13.86 2.032-18.71-2.86C-5.76 8.9-3.56 1.17 3.884.085c1.52-.24 3.08-.12 4.56.28 1.04.29 2.04.74 2.94 1.33.39.25.34.84-.1 1.02-.44.18-.86-.04-1.24-.28-2.28-1.36-4.98-1.74-7.54-1.2-4.84 1.08-7.38 5.84-6.48 10.58.74 3.9 3.88 7.02 7.78 7.72 3.34.58 6.88-.18 9.58-2.08.42-.3.92.24.54.66zm1.1-2.66c-.22.16-.5.1-.66-.12-.02-.02-2.1-2.52-2.1-2.52-.36-.44-.1-1.08.44-1.2 1.64-.36 3.34-.28 4.94.24.48.16.62.74.28 1.1l-2.9 2.5z"/><path d="M15.2 19.5c4.1-.5 7.8-2.7 10.1-6.1.26-.36-.02-.86-.48-.78-3.5.62-7.14.48-10.58-.4-.4-.1-.74.28-.6.66 1.24 3.1 3.34 5.76 6.02 7.5.2.14.46.2.7.12z"/></svg>
