<svg xmlns="http://www.w3.org/2000/svg" viewBox="0 0 24 24" fill="#fff" role="img" aria-label="Apple"><path d="M16.365 1.43c0 1.14-.413 2.219-1.157 3.03-.86.94-2.27 1.67-3.473 1.56-.164-1.09.476-2.25 1.298-3.03.88-.83 2.413-1.52 3.332-1.56zM20.64 17.14c-.74 1.63-1.08 2.36-2.02 3.8-1.31 2.01-3.16 4.52-5.45 4.54-1.04.01-1.74-.68-3.24-.68-1.5 0-2.17.66-3.23.69-2.3.09-4.06-2.49-5.37-4.5-2.92-4.46-3.24-9.7-1.43-12.47 1.28-1.95 3.3-3.09 5.2-3.09 1.22 0 2.37.74 3.18.74.78 0 2.25-.92 3.8-.78.65.03 2.47.26 3.63 1.98-3.09 1.68-2.6 6.05.45 7.35-.63 1.61-1.45 3.2-2.51 4.62z"/></svg>
