<svg xmlns="http://www.w3.org/2000/svg" viewBox="0 0 64 64" fill="none" role="img" aria-label="Sereno">
  <defs>
    <linearGradient id="serenoGradDark" x1="8" y1="6" x2="56" y2="58" gradientUnits="userSpaceOnUse">
      <stop stop-color="#FF6B85"/>
      <stop offset="1" stop-color="#FF8558"/>
    </linearGradient>
  </defs>
  <rect width="64" height="64" rx="18" fill="url(#serenoGradDark)"/>
  <path
    fill="#FFFFFF"
    d="M32.1 13.2c-8.7 0-14.6 4.5-14.6 11.6 0 5.4 3.3 8.6 11.2 10.6l2.9.7c5.5 1.4 7.5 3 7.5 6.1 0 3.9-3.4 6.3-7.6 6.3-4.7 0-8-2.4-8.7-6.4l-7.6 1.5c1.5 8.4 8.7 13.3 16.3 13.3 9.5 0 16-5.3 16-13.1 0-5.8-3.5-9.4-11.6-11.5l-2.9-.7c-5.1-1.3-7-2.8-7-5.7 0-3.5 3-5.8 7-5.8 4.3 0 7.3 2.1 7.9 5.8l7.3-1.3c-1.3-7.6-7.6-11.4-15.7-11.4z"
  />
</svg>
