<svg xmlns="http://www.w3.org/2000/svg" viewBox="0 0 360 280" fill="none" role="img" aria-hidden="true">
  <rect width="360" height="280" rx="24" fill="#FFF6F3"/>
  <circle cx="280" cy="70" r="48" fill="#FFEDEF"/>
  <rect x="48" y="56" width="180" height="168" rx="22" fill="#FFFFFF" stroke="#E7E5DF"/>
  <rect x="64" y="72" width="148" height="56" rx="14" fill="url(#g)"/>
  <rect x="78" y="86" width="44" height="7" rx="3.5" fill="#FFFFFF" opacity=".75"/>
  <rect x="78" y="102" width="86" height="13" rx="6.5" fill="#FFFFFF"/>
  <rect x="64" y="144" width="148" height="18" rx="9" fill="#F7F6F3"/>
  <rect x="64" y="144" width="56" height="18" rx="9" fill="#14151A"/>
  <rect x="64" y="174" width="148" height="14" rx="7" fill="#F7F6F3"/>
  <rect x="64" y="198" width="100" height="14" rx="7" fill="#F7F6F3"/>
  <circle cx="270" cy="170" r="54" fill="#FFEDEF"/>
  <path d="M246 178c10-28 38-42 58-28" stroke="#FF4D6D" stroke-width="8" stroke-linecap="round"/>
  <circle cx="292" cy="156" r="10" fill="#FF7A56"/>
  <defs>
    <linearGradient id="g" x1="64" y1="72" x2="212" y2="128" gradientUnits="userSpaceOnUse">
      <stop stop-color="#FF4D6D"/>
      <stop offset="1" stop-color="#FF7A56"/>
    </linearGradient>
  </defs>
</svg>
